<svg width="26" height="26" viewBox="0 0 26 26" fill="none" xmlns="http://www.w3.org/2000/svg">
<rect width="26" height="26" fill="#E5E5E5"/>
<g clip-path="url(#clip0_0_1)">
<rect width="1440" height="3001" transform="translate(-1209 -22)" fill="white"/>
<path d="M-1209 -22H231V553L-1209 768.5V-22Z" fill="url(#paint0_linear_0_1)"/>
<path d="M-205.497 -19.3927L315.397 234.664L234.739 808.572L-336.004 909.209L-608.085 397.499L-205.497 -19.3927Z" fill="white" fill-opacity="0.2"/>
<path d="M-187.386 81.9423L225.104 283.127L161.232 737.597L-290.732 817.29L-506.189 412.074L-187.386 81.9423Z" fill="white" fill-opacity="0.2"/>
<g filter="url(#filter0_d_0_1)">
<rect x="-1209" y="-22" width="1440" height="70" fill="white"/>
</g>
<mask id="path-5-outside-1_0_1" maskUnits="userSpaceOnUse" x="0" y="0" width="26" height="26" fill="black">
<rect fill="white" width="26" height="26"/>
<path fill-rule="evenodd" clip-rule="evenodd" d="M13 1C9.7408 1 9.3328 1.0144 8.0524 1.072C6.7756 1.1308 5.9032 1.3336 5.14 1.63C4.33898 1.93101 3.6133 2.4032 3.0136 3.0136C2.40323 3.61333 1.93105 4.339 1.63 5.14C1.3336 5.9032 1.1308 6.7756 1.072 8.0524C1.0132 9.3328 1 9.7408 1 13C1 16.2592 1.0132 16.6672 1.072 17.9476C1.1308 19.2244 1.3336 20.0968 1.63 20.86C1.93108 21.661 2.40326 22.3866 3.0136 22.9864C3.61335 23.5967 4.33902 24.0689 5.14 24.37C5.9032 24.6664 6.7756 24.8692 8.0524 24.928C9.3328 24.9856 9.7408 25 13 25C16.2592 25 16.6672 24.9856 17.9476 24.928C19.2244 24.8692 20.0968 24.6664 20.86 24.37C21.661 24.069 22.3867 23.5968 22.9864 22.9864C23.5968 22.3867 24.069 21.661 24.37 20.86C24.6664 20.0968 24.8692 19.2244 24.928 17.9476C24.9856 16.6672 25 16.2592 25 13C25 9.7408 24.9856 9.3328 24.928 8.0524C24.8692 6.7756 24.6664 5.9032 24.37 5.14C24.069 4.339 23.5968 3.61333 22.9864 3.0136C22.3867 2.4032 21.661 1.93101 20.86 1.63C20.0968 1.3336 19.2244 1.1308 17.9476 1.072C16.6672 1.0144 16.2592 1 13 1ZM13 3.1624C16.204 3.1624 16.5832 3.1744 17.848 3.232C19.0192 3.286 19.654 3.4804 20.0776 3.6448C20.6368 3.8632 21.0376 4.1236 21.4576 4.5424C21.8776 4.9624 22.1368 5.3632 22.3552 5.9224C22.5184 6.346 22.7152 6.9808 22.768 8.1508C22.8256 9.4168 22.8376 9.7948 22.8376 13C22.8376 16.204 22.8256 16.5832 22.768 17.848C22.714 19.0192 22.5184 19.654 22.3552 20.0776C22.1628 20.5989 21.8561 21.0704 21.4576 21.4576C21.0376 21.8776 20.6368 22.1368 20.0776 22.3552C19.654 22.5184 19.0192 22.7152 17.8492 22.768C16.5844 22.8256 16.2052 22.8376 13 22.8376C9.796 22.8376 9.4156 22.8256 8.152 22.768C6.9808 22.714 6.346 22.5184 5.9224 22.3552C5.4011 22.1629 4.92954 21.8562 4.5424 21.4576C4.14383 21.0705 3.83711 20.5989 3.6448 20.0776C3.4804 19.654 3.2848 19.0192 3.232 17.8492C3.1744 16.5832 3.1624 16.2052 3.1624 13C3.1624 9.796 3.1744 9.4168 3.232 8.152C3.286 6.9808 3.4804 6.346 3.6448 5.9224C3.8632 5.3632 4.1236 4.9624 4.5424 4.5424C4.9624 4.1224 5.3632 3.8632 5.9224 3.6448C6.346 3.4804 6.9808 3.2848 8.1508 3.232C9.4168 3.1744 9.7948 3.1624 13 3.1624ZM13 16.9996C11.9392 16.9996 10.9219 16.5782 10.1719 15.8281C9.42179 15.0781 9.0004 14.0608 9.0004 13C9.0004 11.9392 9.42179 10.9219 10.1719 10.1719C10.9219 9.42179 11.9392 9.0004 13 9.0004C14.0608 9.0004 15.0781 9.42179 15.8281 10.1719C16.5782 10.9219 16.9996 11.9392 16.9996 13C16.9996 14.0608 16.5782 15.0781 15.8281 15.8281C15.0781 16.5782 14.0608 16.9996 13 16.9996ZM13 6.838C12.1908 6.838 11.3895 6.99739 10.6419 7.30705C9.8943 7.61672 9.215 8.07061 8.64281 8.64281C8.07061 9.215 7.61672 9.8943 7.30705 10.6419C6.99739 11.3895 6.838 12.1908 6.838 13C6.838 13.8092 6.99739 14.6105 7.30705 15.3581C7.61672 16.1057 8.07061 16.785 8.64281 17.3572C9.215 17.9294 9.8943 18.3833 10.6419 18.6929C11.3895 19.0026 12.1908 19.162 13 19.162C14.6343 19.162 16.2016 18.5128 17.3572 17.3572C18.5128 16.2016 19.162 14.6343 19.162 13C19.162 11.3657 18.5128 9.79841 17.3572 8.64281C16.2016 7.48721 14.6343 6.838 13 6.838ZM20.8456 6.5944C20.8456 6.7835 20.8084 6.97076 20.736 7.14546C20.6636 7.32017 20.5576 7.47892 20.4238 7.61263C20.2901 7.74635 20.1314 7.85242 19.9567 7.92479C19.782 7.99715 19.5947 8.0344 19.4056 8.0344C19.2165 8.0344 19.0292 7.99715 18.8545 7.92479C18.6798 7.85242 18.5211 7.74635 18.3874 7.61263C18.2537 7.47892 18.1476 7.32017 18.0752 7.14546C18.0028 6.97076 17.9656 6.7835 17.9656 6.5944C17.9656 6.21249 18.1173 5.84622 18.3874 5.57617C18.6574 5.30611 19.0237 5.1544 19.4056 5.1544C19.7875 5.1544 20.1538 5.30611 20.4238 5.57617C20.6939 5.84622 20.8456 6.21249 20.8456 6.5944Z"/>
</mask>
<path fill-rule="evenodd" clip-rule="evenodd" d="M13 1C9.7408 1 9.3328 1.0144 8.0524 1.072C6.7756 1.1308 5.9032 1.3336 5.14 1.63C4.33898 1.93101 3.6133 2.4032 3.0136 3.0136C2.40323 3.61333 1.93105 4.339 1.63 5.14C1.3336 5.9032 1.1308 6.7756 1.072 8.0524C1.0132 9.3328 1 9.7408 1 13C1 16.2592 1.0132 16.6672 1.072 17.9476C1.1308 19.2244 1.3336 20.0968 1.63 20.86C1.93108 21.661 2.40326 22.3866 3.0136 22.9864C3.61335 23.5967 4.33902 24.0689 5.14 24.37C5.9032 24.6664 6.7756 24.8692 8.0524 24.928C9.3328 24.9856 9.7408 25 13 25C16.2592 25 16.6672 24.9856 17.9476 24.928C19.2244 24.8692 20.0968 24.6664 20.86 24.37C21.661 24.069 22.3867 23.5968 22.9864 22.9864C23.5968 22.3867 24.069 21.661 24.37 20.86C24.6664 20.0968 24.8692 19.2244 24.928 17.9476C24.9856 16.6672 25 16.2592 25 13C25 9.7408 24.9856 9.3328 24.928 8.0524C24.8692 6.7756 24.6664 5.9032 24.37 5.14C24.069 4.339 23.5968 3.61333 22.9864 3.0136C22.3867 2.4032 21.661 1.93101 20.86 1.63C20.0968 1.3336 19.2244 1.1308 17.9476 1.072C16.6672 1.0144 16.2592 1 13 1ZM13 3.1624C16.204 3.1624 16.5832 3.1744 17.848 3.232C19.0192 3.286 19.654 3.4804 20.0776 3.6448C20.6368 3.8632 21.0376 4.1236 21.4576 4.5424C21.8776 4.9624 22.1368 5.3632 22.3552 5.9224C22.5184 6.346 22.7152 6.9808 22.768 8.1508C22.8256 9.4168 22.8376 9.7948 22.8376 13C22.8376 16.204 22.8256 16.5832 22.768 17.848C22.714 19.0192 22.5184 19.654 22.3552 20.0776C22.1628 20.5989 21.8561 21.0704 21.4576 21.4576C21.0376 21.8776 20.6368 22.1368 20.0776 22.3552C19.654 22.5184 19.0192 22.7152 17.8492 22.768C16.5844 22.8256 16.2052 22.8376 13 22.8376C9.796 22.8376 9.4156 22.8256 8.152 22.768C6.9808 22.714 6.346 22.5184 5.9224 22.3552C5.4011 22.1629 4.92954 21.8562 4.5424 21.4576C4.14383 21.0705 3.83711 20.5989 3.6448 20.0776C3.4804 19.654 3.2848 19.0192 3.232 17.8492C3.1744 16.5832 3.1624 16.2052 3.1624 13C3.1624 9.796 3.1744 9.4168 3.232 8.152C3.286 6.9808 3.4804 6.346 3.6448 5.9224C3.8632 5.3632 4.1236 4.9624 4.5424 4.5424C4.9624 4.1224 5.3632 3.8632 5.9224 3.6448C6.346 3.4804 6.9808 3.2848 8.1508 3.232C9.4168 3.1744 9.7948 3.1624 13 3.1624ZM13 16.9996C11.9392 16.9996 10.9219 16.5782 10.1719 15.8281C9.42179 15.0781 9.0004 14.0608 9.0004 13C9.0004 11.9392 9.42179 10.9219 10.1719 10.1719C10.9219 9.42179 11.9392 9.0004 13 9.0004C14.0608 9.0004 15.0781 9.42179 15.8281 10.1719C16.5782 10.9219 16.9996 11.9392 16.9996 13C16.9996 14.0608 16.5782 15.0781 15.8281 15.8281C15.0781 16.5782 14.0608 16.9996 13 16.9996ZM13 6.838C12.1908 6.838 11.3895 6.99739 10.6419 7.30705C9.8943 7.61672 9.215 8.07061 8.64281 8.64281C8.07061 9.215 7.61672 9.8943 7.30705 10.6419C6.99739 11.3895 6.838 12.1908 6.838 13C6.838 13.8092 6.99739 14.6105 7.30705 15.3581C7.61672 16.1057 8.07061 16.785 8.64281 17.3572C9.215 17.9294 9.8943 18.3833 10.6419 18.6929C11.3895 19.0026 12.1908 19.162 13 19.162C14.6343 19.162 16.2016 18.5128 17.3572 17.3572C18.5128 16.2016 19.162 14.6343 19.162 13C19.162 11.3657 18.5128 9.79841 17.3572 8.64281C16.2016 7.48721 14.6343 6.838 13 6.838ZM20.8456 6.5944C20.8456 6.7835 20.8084 6.97076 20.736 7.14546C20.6636 7.32017 20.5576 7.47892 20.4238 7.61263C20.2901 7.74635 20.1314 7.85242 19.9567 7.92479C19.782 7.99715 19.5947 8.0344 19.4056 8.0344C19.2165 8.0344 19.0292 7.99715 18.8545 7.92479C18.6798 7.85242 18.5211 7.74635 18.3874 7.61263C18.2537 7.47892 18.1476 7.32017 18.0752 7.14546C18.0028 6.97076 17.9656 6.7835 17.9656 6.5944C17.9656 6.21249 18.1173 5.84622 18.3874 5.57617C18.6574 5.30611 19.0237 5.1544 19.4056 5.1544C19.7875 5.1544 20.1538 5.30611 20.4238 5.57617C20.6939 5.84622 20.8456 6.21249 20.8456 6.5944Z" fill="#2F3539"/>
<path d="M8.0524 1.072L8.04341 0.872202L8.0432 0.872212L8.0524 1.072ZM5.14 1.63L5.21036 1.81723L5.2124 1.81643L5.14 1.63ZM3.0136 3.0136L3.15379 3.15628L3.15627 3.15377L3.0136 3.0136ZM1.63 5.14L1.81645 5.21241L1.81721 5.21036L1.63 5.14ZM1.072 8.0524L0.872212 8.0432L0.87221 8.04323L1.072 8.0524ZM1.072 17.9476L0.87221 17.9568L0.872212 17.9568L1.072 17.9476ZM1.63 20.86L1.81722 20.7896L1.81643 20.7876L1.63 20.86ZM3.0136 22.9864L3.15628 22.8462L3.15378 22.8437L3.0136 22.9864ZM5.14 24.37L5.21241 24.1836L5.21037 24.1828L5.14 24.37ZM8.0524 24.928L8.0432 25.1278L8.04341 25.1278L8.0524 24.928ZM17.9476 24.928L17.9566 25.1278L17.9568 25.1278L17.9476 24.928ZM20.86 24.37L20.7896 24.1828L20.7876 24.1836L20.86 24.37ZM22.9864 22.9864L22.8462 22.8437L22.8437 22.8462L22.9864 22.9864ZM24.37 20.86L24.1836 20.7876L24.1828 20.7896L24.37 20.86ZM24.928 17.9476L25.1278 17.9568L25.1278 17.9566L24.928 17.9476ZM24.928 8.0524L25.1278 8.04341L25.1278 8.0432L24.928 8.0524ZM24.37 5.14L24.1828 5.21037L24.1836 5.2124L24.37 5.14ZM22.9864 3.0136L22.8437 3.15379L22.8462 3.15626L22.9864 3.0136ZM20.86 1.63L20.7876 1.81645L20.7896 1.81722L20.86 1.63ZM17.9476 1.072L17.9568 0.872212L17.9566 0.872202L17.9476 1.072ZM17.848 3.232L17.8572 3.03221L17.8571 3.03221L17.848 3.232ZM20.0776 3.6448L20.1504 3.4585L20.15 3.45835L20.0776 3.6448ZM21.4576 4.5424L21.599 4.40098L21.5988 4.40078L21.4576 4.5424ZM22.3552 5.9224L22.5418 5.8505L22.5415 5.84964L22.3552 5.9224ZM22.768 8.1508L22.5682 8.15982L22.5682 8.15989L22.768 8.1508ZM22.768 17.848L22.9678 17.8572L22.9678 17.8571L22.768 17.848ZM22.3552 20.0776L22.1686 20.0057L22.1676 20.0084L22.3552 20.0776ZM21.4576 21.4576L21.3182 21.3141L21.3162 21.3162L21.4576 21.4576ZM20.0776 22.3552L20.1495 22.5418L20.1504 22.5415L20.0776 22.3552ZM17.8492 22.768L17.8402 22.5682L17.8401 22.5682L17.8492 22.768ZM8.152 22.768L8.14279 22.9678L8.14289 22.9678L8.152 22.768ZM5.9224 22.3552L5.99431 22.1686L5.99162 22.1676L5.9224 22.3552ZM4.5424 21.4576L4.68592 21.3182L4.68175 21.3141L4.5424 21.4576ZM3.6448 20.0776L3.83247 20.0084L3.83125 20.0052L3.6448 20.0776ZM3.232 17.8492L3.4318 17.8402L3.43179 17.8401L3.232 17.8492ZM3.232 8.152L3.03221 8.14279L3.03221 8.1429L3.232 8.152ZM3.6448 5.9224L3.4585 5.84964L3.45835 5.85004L3.6448 5.9224ZM4.5424 4.5424L4.40098 4.40098L4.40078 4.40118L4.5424 4.5424ZM5.9224 3.6448L5.85004 3.45835L5.84964 3.4585L5.9224 3.6448ZM8.1508 3.232L8.15982 3.4318L8.15989 3.43179L8.1508 3.232ZM6.838 13H6.638H6.838ZM13 19.162V18.962V19.162ZM19.4056 8.0344V8.2344V8.0344ZM17.9656 6.5944H17.7656H17.9656ZM19.4056 5.1544V4.9544V5.1544ZM13 0.8C9.73973 0.8 9.32826 0.814402 8.04341 0.872202L8.06139 1.2718C9.33734 1.2144 9.74187 1.2 13 1.2V0.8ZM8.0432 0.872212C6.74749 0.931883 5.85341 1.13838 5.0676 1.44357L5.2124 1.81643C5.95299 1.52882 6.80371 1.32972 8.0616 1.27179L8.0432 0.872212ZM5.06965 1.44278C4.24139 1.75403 3.49103 2.24227 2.87093 2.87343L3.15627 3.15377C3.73558 2.56412 4.43658 2.10799 5.21035 1.81722L5.06965 1.44278ZM2.87343 2.87094C2.2423 3.49106 1.75407 4.24141 1.44279 5.06964L1.81721 5.21036C2.10803 4.4366 2.56415 3.7356 3.15377 3.15626L2.87343 2.87094ZM1.44357 5.0676C1.13838 5.85341 0.931883 6.74749 0.872212 8.0432L1.27179 8.0616C1.32972 6.80371 1.52882 5.95299 1.81643 5.2124L1.44357 5.0676ZM0.87221 8.04323C0.813197 9.32827 0.8 9.73991 0.8 13H1.2C1.2 9.74169 1.2132 9.33733 1.27179 8.06157L0.87221 8.04323ZM0.8 13C0.8 16.2601 0.813197 16.6717 0.87221 17.9568L1.27179 17.9384C1.2132 16.6627 1.2 16.2583 1.2 13H0.8ZM0.872212 17.9568C0.931883 19.2525 1.13838 20.1466 1.44357 20.9324L1.81643 20.7876C1.52882 20.047 1.32972 19.1963 1.27179 17.9384L0.872212 17.9568ZM1.44279 20.9304C1.75411 21.7586 2.24233 22.5089 2.87342 23.1291L3.15378 22.8437C2.56418 22.2644 2.10806 21.5634 1.81721 20.7896L1.44279 20.9304ZM2.87095 23.1266C3.49109 23.7577 4.24142 24.2459 5.06963 24.5572L5.21037 24.1828C4.43662 23.8919 3.73562 23.4358 3.15625 22.8462L2.87095 23.1266ZM5.0676 24.5564C5.85341 24.8616 6.74749 25.0681 8.0432 25.1278L8.0616 24.7282C6.80371 24.6703 5.95299 24.4712 5.2124 24.1836L5.0676 24.5564ZM8.04341 25.1278C9.32826 25.1856 9.73973 25.2 13 25.2V24.8C9.74187 24.8 9.33734 24.7856 8.06139 24.7282L8.04341 25.1278ZM13 25.2C16.2603 25.2 16.6717 25.1856 17.9566 25.1278L17.9386 24.7282C16.6627 24.7856 16.2581 24.8 13 24.8V25.2ZM17.9568 25.1278C19.2525 25.0681 20.1466 24.8616 20.9324 24.5564L20.7876 24.1836C20.047 24.4712 19.1963 24.6703 17.9384 24.7282L17.9568 25.1278ZM20.9304 24.5572C21.7586 24.2459 22.5089 23.7577 23.1291 23.1266L22.8437 22.8462C22.2644 23.4358 21.5634 23.892 20.7896 24.1828L20.9304 24.5572ZM23.1266 23.1291C23.7577 22.5089 24.2459 21.7586 24.5572 20.9304L24.1828 20.7896C23.892 21.5634 23.4358 22.2644 22.8462 22.8437L23.1266 23.1291ZM24.5564 20.9324C24.8616 20.1466 25.0681 19.2525 25.1278 17.9568L24.7282 17.9384C24.6703 19.1963 24.4712 20.047 24.1836 20.7876L24.5564 20.9324ZM25.1278 17.9566C25.1856 16.6717 25.2 16.2603 25.2 13H24.8C24.8 16.2581 24.7856 16.6627 24.7282 17.9386L25.1278 17.9566ZM25.2 13C25.2 9.73973 25.1856 9.32826 25.1278 8.04341L24.7282 8.06139C24.7856 9.33734 24.8 9.74187 24.8 13H25.2ZM25.1278 8.0432C25.0681 6.74749 24.8616 5.85341 24.5564 5.0676L24.1836 5.2124C24.4712 5.95299 24.6703 6.80371 24.7282 8.0616L25.1278 8.0432ZM24.5572 5.06964C24.2459 4.24141 23.7577 3.49106 23.1266 2.87094L22.8462 3.15626C23.4358 3.7356 23.892 4.4366 24.1828 5.21036L24.5572 5.06964ZM23.1291 2.87343C22.509 2.24227 21.7586 1.75403 20.9304 1.44278L20.7896 1.81722C21.5634 2.10799 22.2644 2.56412 22.8437 3.15377L23.1291 2.87343ZM20.9324 1.44357C20.1466 1.13838 19.2525 0.931883 17.9568 0.872212L17.9384 1.27179C19.1963 1.32972 20.047 1.52882 20.7876 1.81643L20.9324 1.44357ZM17.9566 0.872202C16.6717 0.814402 16.2603 0.8 13 0.8V1.2C16.2581 1.2 16.6627 1.2144 17.9386 1.2718L17.9566 0.872202ZM13 3.3624C16.2032 3.3624 16.5787 3.3744 17.8389 3.43179L17.8571 3.03221C16.5877 2.9744 16.2048 2.9624 13 2.9624V3.3624ZM17.8388 3.43179C18.9882 3.48478 19.6016 3.67461 20.0052 3.83125L20.15 3.45835C19.7064 3.28619 19.0502 3.08722 17.8572 3.03221L17.8388 3.43179ZM20.0048 3.8311C20.5388 4.03964 20.9162 4.28497 21.3164 4.68402L21.5988 4.40078C21.159 3.96223 20.7348 3.68676 20.1504 3.4585L20.0048 3.8311ZM21.3162 4.68382C21.7161 5.08375 21.9603 5.46099 22.1689 5.99516L22.5415 5.84964C22.3133 5.26541 22.0391 4.84105 21.599 4.40098L21.3162 4.68382ZM22.1686 5.9943C22.3244 6.39864 22.5164 7.01225 22.5682 8.15982L22.9678 8.14178C22.914 6.94935 22.7124 6.29336 22.5418 5.8505L22.1686 5.9943ZM22.5682 8.15989C22.6256 9.42126 22.6376 9.79563 22.6376 13H23.0376C23.0376 9.79397 23.0256 9.41234 22.9678 8.14171L22.5682 8.15989ZM22.6376 13C22.6376 16.2032 22.6256 16.5787 22.5682 17.8389L22.9678 17.8571C23.0256 16.5877 23.0376 16.2048 23.0376 13H22.6376ZM22.5682 17.8388C22.5152 18.9879 22.3243 19.6015 22.1686 20.0057L22.5418 20.1495C22.7125 19.7065 22.9128 19.0505 22.9678 17.8572L22.5682 17.8388ZM22.1676 20.0084C21.9855 20.5016 21.6953 20.9478 21.3182 21.3142L21.597 21.601C22.0169 21.193 22.3401 20.6961 22.5428 20.1469L22.1676 20.0084ZM21.3162 21.3162C20.9163 21.7161 20.539 21.9603 20.0048 22.1689L20.1504 22.5415C20.7346 22.3133 21.1589 22.0391 21.599 21.599L21.3162 21.3162ZM20.0057 22.1686C19.6014 22.3244 18.9878 22.5164 17.8402 22.5682L17.8582 22.9678C19.0506 22.914 19.7066 22.7124 20.1495 22.5418L20.0057 22.1686ZM17.8401 22.5682C16.5799 22.6256 16.2044 22.6376 13 22.6376V23.0376C16.206 23.0376 16.5889 23.0256 17.8583 22.9678L17.8401 22.5682ZM13 22.6376C9.79682 22.6376 9.42006 22.6256 8.16111 22.5682L8.14289 22.9678C9.41114 23.0256 9.79518 23.0376 13 23.0376V22.6376ZM8.16121 22.5682C7.01212 22.5152 6.39845 22.3243 5.9943 22.1686L5.8505 22.5418C6.29355 22.7125 6.94948 22.9128 8.14279 22.9678L8.16121 22.5682ZM5.99162 22.1676C5.49837 21.9856 5.05218 21.6954 4.68586 21.3183L4.39894 21.597C4.80691 22.017 5.30384 22.3402 5.85318 22.5428L5.99162 22.1676ZM4.68175 21.3141C4.30462 20.9478 4.0144 20.5016 3.83244 20.0084L3.45716 20.1468C3.65982 20.6962 3.98304 21.1931 4.40305 21.6011L4.68175 21.3141ZM3.83125 20.0052C3.67454 19.6015 3.4836 18.988 3.4318 17.8402L3.0322 17.8582C3.086 19.0504 3.28626 19.7066 3.45835 20.15L3.83125 20.0052ZM3.43179 17.8401C3.3744 16.5787 3.3624 16.2044 3.3624 13H2.9624C2.9624 16.206 2.9744 16.5877 3.03221 17.8583L3.43179 17.8401ZM3.3624 13C3.3624 9.79683 3.3744 9.42126 3.43179 8.1611L3.03221 8.1429C2.9744 9.41234 2.9624 9.79517 2.9624 13H3.3624ZM3.43179 8.16121C3.48478 7.01185 3.67461 6.39836 3.83125 5.99476L3.45835 5.85004C3.28619 6.29364 3.08722 6.94975 3.03221 8.14279L3.43179 8.16121ZM3.8311 5.99516C4.03964 5.46121 4.28497 5.08381 4.68402 4.68362L4.40078 4.40118C3.96223 4.84099 3.68676 5.26519 3.4585 5.84964L3.8311 5.99516ZM4.68382 4.68382C5.08375 4.28389 5.46099 4.03972 5.99516 3.8311L5.84964 3.4585C5.26541 3.68668 4.84105 3.96091 4.40098 4.40098L4.68382 4.68382ZM5.99476 3.83125C6.39855 3.67454 7.01198 3.4836 8.15982 3.4318L8.14178 3.0322C6.94962 3.086 6.29345 3.28626 5.85004 3.45835L5.99476 3.83125ZM8.15989 3.43179C9.42126 3.3744 9.79563 3.3624 13 3.3624V2.9624C9.79397 2.9624 9.41234 2.9744 8.14171 3.03221L8.15989 3.43179ZM13 16.7996C11.9923 16.7996 11.0258 16.3993 10.3133 15.6867L10.0304 15.9696C10.818 16.7571 11.8862 17.1996 13 17.1996V16.7996ZM10.3133 15.6867C9.60071 14.9742 9.2004 14.0077 9.2004 13H8.8004C8.8004 14.1138 9.24286 15.182 10.0304 15.9696L10.3133 15.6867ZM9.2004 13C9.2004 11.9923 9.60071 11.0258 10.3133 10.3133L10.0304 10.0304C9.24286 10.818 8.8004 11.8862 8.8004 13H9.2004ZM10.3133 10.3133C11.0258 9.60071 11.9923 9.2004 13 9.2004V8.8004C11.8862 8.8004 10.818 9.24286 10.0304 10.0304L10.3133 10.3133ZM13 9.2004C14.0077 9.2004 14.9742 9.60071 15.6867 10.3133L15.9696 10.0304C15.182 9.24286 14.1138 8.8004 13 8.8004V9.2004ZM15.6867 10.3133C16.3993 11.0258 16.7996 11.9923 16.7996 13H17.1996C17.1996 11.8862 16.7571 10.818 15.9696 10.0304L15.6867 10.3133ZM16.7996 13C16.7996 14.0077 16.3993 14.9742 15.6867 15.6867L15.9696 15.9696C16.7571 15.182 17.1996 14.1138 17.1996 13H16.7996ZM15.6867 15.6867C14.9742 16.3993 14.0077 16.7996 13 16.7996V17.1996C14.1138 17.1996 15.182 16.7571 15.9696 15.9696L15.6867 15.6867ZM13 6.638C12.1645 6.638 11.3372 6.80256 10.5654 7.12228L10.7184 7.49183C11.4418 7.19221 12.2171 7.038 13 7.038V6.638ZM10.5654 7.12228C9.79349 7.442 9.09215 7.91062 8.50139 8.50139L8.78423 8.78423C9.33785 8.23061 9.9951 7.79145 10.7184 7.49183L10.5654 7.12228ZM8.50139 8.50139C7.91062 9.09215 7.442 9.7935 7.12228 10.5654L7.49183 10.7184C7.79145 9.9951 8.23061 9.33785 8.78423 8.78423L8.50139 8.50139ZM7.12228 10.5654C6.80256 11.3372 6.638 12.1645 6.638 13H7.038C7.038 12.2171 7.19221 11.4418 7.49183 10.7184L7.12228 10.5654ZM6.638 13C6.638 13.8355 6.80256 14.6628 7.12228 15.4346L7.49183 15.2816C7.19221 14.5582 7.038 13.7829 7.038 13H6.638ZM7.12228 15.4346C7.442 16.2065 7.91062 16.9078 8.50139 17.4986L8.78423 17.2158C8.23061 16.6621 7.79145 16.0049 7.49183 15.2816L7.12228 15.4346ZM8.50139 17.4986C9.09215 18.0894 9.79349 18.558 10.5654 18.8777L10.7184 18.5082C9.9951 18.2086 9.33785 17.7694 8.78423 17.2158L8.50139 17.4986ZM10.5654 18.8777C11.3372 19.1974 12.1645 19.362 13 19.362V18.962C12.2171 18.962 11.4418 18.8078 10.7184 18.5082L10.5654 18.8777ZM13 19.362C14.6873 19.362 16.3055 18.6917 17.4986 17.4986L17.2158 17.2158C16.0977 18.3339 14.5812 18.962 13 18.962V19.362ZM17.4986 17.4986C18.6917 16.3055 19.362 14.6873 19.362 13H18.962C18.962 14.5812 18.3339 16.0977 17.2158 17.2158L17.4986 17.4986ZM19.362 13C19.362 11.3127 18.6917 9.69449 17.4986 8.50139L17.2158 8.78423C18.3339 9.90232 18.962 11.4188 18.962 13H19.362ZM17.4986 8.50139C16.3055 7.30828 14.6873 6.638 13 6.638V7.038C14.5812 7.038 16.0977 7.66614 17.2158 8.78423L17.4986 8.50139ZM20.6456 6.5944C20.6456 6.75724 20.6135 6.91848 20.5512 7.06893L20.9208 7.222C21.0032 7.02303 21.0456 6.80977 21.0456 6.5944H20.6456ZM20.5512 7.06893C20.4889 7.21937 20.3976 7.35607 20.2824 7.47121L20.5653 7.75406C20.7175 7.60177 20.8383 7.42098 20.9208 7.222L20.5512 7.06893ZM20.2824 7.47121C20.1673 7.58636 20.0306 7.6777 19.8801 7.74001L20.0332 8.10956C20.2322 8.02714 20.413 7.90634 20.5653 7.75406L20.2824 7.47121ZM19.8801 7.74001C19.7297 7.80233 19.5684 7.8344 19.4056 7.8344V8.2344C19.621 8.2344 19.8342 8.19198 20.0332 8.10956L19.8801 7.74001ZM19.4056 7.8344C19.2428 7.8344 19.0815 7.80233 18.9311 7.74001L18.778 8.10956C18.977 8.19198 19.1902 8.2344 19.4056 8.2344V7.8344ZM18.9311 7.74001C18.7806 7.6777 18.6439 7.58636 18.5288 7.47121L18.2459 7.75406C18.3982 7.90634 18.579 8.02715 18.778 8.10956L18.9311 7.74001ZM18.5288 7.47121C18.4136 7.35607 18.3223 7.21937 18.26 7.06893L17.8904 7.222C17.9729 7.42098 18.0937 7.60177 18.2459 7.75406L18.5288 7.47121ZM18.26 7.06893C18.1977 6.91848 18.1656 6.75724 18.1656 6.5944H17.7656C17.7656 6.80977 17.808 7.02303 17.8904 7.222L18.26 7.06893ZM18.1656 6.5944C18.1656 6.26553 18.2962 5.95013 18.5288 5.71759L18.2459 5.43474C17.9384 5.7423 17.7656 6.15945 17.7656 6.5944H18.1656ZM18.5288 5.71759C18.7613 5.48504 19.0767 5.3544 19.4056 5.3544V4.9544C18.9706 4.9544 18.5535 5.12719 18.2459 5.43474L18.5288 5.71759ZM19.4056 5.3544C19.7345 5.3544 20.0499 5.48504 20.2824 5.71759L20.5653 5.43474C20.2577 5.12719 19.8406 4.9544 19.4056 4.9544V5.3544ZM20.2824 5.71759C20.515 5.95013 20.6456 6.26553 20.6456 6.5944H21.0456C21.0456 6.15945 20.8728 5.7423 20.5653 5.43474L20.2824 5.71759Z" fill="#2F3539" mask="url(#path-5-outside-1_0_1)"/>
</g>
<rect x="-1600" y="-985" width="5244" height="4698" stroke="black" stroke-width="10"/>
<defs>
<filter id="filter0_d_0_1" x="-1219" y="-30" width="1460" height="90" filterUnits="userSpaceOnUse" color-interpolation-filters="sRGB">
<feFlood flood-opacity="0" result="BackgroundImageFix"/>
<feColorMatrix in="SourceAlpha" type="matrix" values="0 0 0 0 0 0 0 0 0 0 0 0 0 0 0 0 0 0 127 0" result="hardAlpha"/>
<feOffset dy="2"/>
<feGaussianBlur stdDeviation="5"/>
<feColorMatrix type="matrix" values="0 0 0 0 0.121569 0 0 0 0 0.14902 0 0 0 0 0.172549 0 0 0 0.07 0"/>
<feBlend mode="normal" in2="BackgroundImageFix" result="effect1_dropShadow_0_1"/>
<feBlend mode="normal" in="SourceGraphic" in2="effect1_dropShadow_0_1" result="shape"/>
</filter>
<linearGradient id="paint0_linear_0_1" x1="-100.2" y1="18.8425" x2="-418.628" y2="875" gradientUnits="userSpaceOnUse">
<stop stop-color="#97D1FF"/>
<stop offset="1" stop-color="#0061AD"/>
</linearGradient>
<clipPath id="clip0_0_1">
<rect width="1440" height="3001" fill="white" transform="translate(-1209 -22)"/>
</clipPath>
</defs>
</svg>
