<svg width="128" height="128" viewBox="0 0 128 128" fill="none" xmlns="http://www.w3.org/2000/svg">
<path d="M10.5744 33.1547L64 2.3094L117.426 33.1547V94.8453L64 125.691L10.5744 94.8453V33.1547Z" stroke="white" stroke-width="4"/>
<path fill-rule="evenodd" clip-rule="evenodd" d="M17.92 43.9689V85.9512C17.92 86.1991 18.1211 86.4 18.3692 86.4H24.8608C25.1089 86.4 25.31 86.1991 25.31 85.9512V74.924C25.31 74.5521 25.6116 74.2507 25.9837 74.2507H42.8875C43.5725 74.2507 44.22 74.5631 44.6461 75.0991L53.2916 85.9758C53.5046 86.2438 53.8284 86.4 54.1709 86.4H60.1417C60.3898 86.4 60.5909 86.1991 60.5909 85.9512V83.981C60.5909 83.7222 60.5014 83.4714 60.3375 83.271L53.3324 74.703C53.1457 74.4747 53.225 74.1294 53.4893 73.9982C54.4735 73.5098 56.5945 72.3754 57.7303 71.1538C58.8024 70.0007 59.6928 68.0211 60.1825 66.7836C60.4708 66.0552 60.5909 65.2756 60.5909 64.4923V53.9952C60.5909 53.3669 60.5136 52.7417 60.3246 52.1424C59.8993 50.7945 58.985 48.2693 57.7303 46.8551C56.8285 45.8388 55.2946 44.8822 54.1618 44.2563C53.2295 43.7412 52.1727 43.52 51.1073 43.52H18.3692C18.1211 43.52 17.92 43.721 17.92 43.9689ZM24.8332 67.5805V49.952H48.6229C49.7529 49.952 50.8946 50.1732 51.8166 50.8261C52.0646 51.0016 52.301 51.191 52.4858 51.3814C52.7582 51.662 53.02 52.0498 53.2435 52.4311C53.7421 53.2816 53.9161 54.2713 53.9161 55.257V62.3818C53.9161 63.2986 53.7682 64.2206 53.3169 65.0188C53.083 65.4325 52.7963 65.8608 52.4858 66.1511C52.3279 66.2987 52.1321 66.4524 51.9236 66.602C50.9302 67.3144 49.7005 67.5805 48.4778 67.5805H24.8332Z" fill="white"/>
<path d="M100.195 43.52H79.1329C76.7867 43.52 74.5113 44.3262 72.685 45.8046L72.0941 46.2829C69.6762 48.2401 68.2706 51.1905 68.2706 54.3083V57.0892C68.2706 59.9429 69.4489 62.6688 71.525 64.6183L72.5457 65.5767C74.4486 67.3635 76.9569 68.3576 79.5626 68.3576H99.8069C100.705 68.3576 101.581 68.6324 102.319 69.1453C103.51 69.9727 104.22 71.3339 104.22 72.7875V74.7979C104.22 76.2119 103.6 77.5541 102.525 78.4674C101.66 79.2018 100.564 79.6048 99.4313 79.6048H80.2827C78.7013 79.6048 77.1657 79.0717 75.9222 78.091C75.0707 77.4195 74.5735 76.3927 74.5735 75.3057V74.4499C74.5735 73.9322 74.1554 73.5126 73.6397 73.5126H69.2044C68.6887 73.5126 68.2706 73.9322 68.2706 74.4499V75.5484C68.2706 78.1554 69.2546 80.6657 71.0244 82.5737L71.5269 83.1155C73.4699 85.2102 76.193 86.4 79.0444 86.4H99.7493C102.601 86.4 105.324 85.2102 107.267 83.1155L107.769 82.5737C109.539 80.6657 110.523 78.1554 110.523 75.5484V72.4141C110.523 69.807 109.539 67.2968 107.769 65.3887L107.267 64.847C105.324 62.7522 102.601 61.5624 99.7493 61.5624H79.3829C78.3805 61.5624 77.4032 61.248 76.5875 60.6632C75.3236 59.7571 74.5735 58.294 74.5735 56.735V54.5844C74.5735 53.0645 75.2351 51.6205 76.3848 50.6314C77.3249 49.8225 78.5222 49.3779 79.7604 49.3779H99.2373C100.49 49.3779 101.697 49.8515 102.617 50.7044C103.639 51.6512 104.22 52.9837 104.22 54.3796V55.1002C104.22 55.4339 104.49 55.7045 104.822 55.7045H109.589C110.105 55.7045 110.523 55.2849 110.523 54.7672V53.8825C110.523 51.0105 109.3 48.241 107.2 46.2898C105.302 44.5252 102.783 43.52 100.195 43.52Z" fill="white" stroke="white" stroke-width="0.5"/>
</svg>
