<svg width="50" height="50" viewBox="0 0 50 50" fill="none" xmlns="http://www.w3.org/2000/svg">
<path d="M25 0L46.6506 12.5V37.5L25 50L3.34937 37.5V12.5L25 0Z" fill="url(#paint0_linear_12_16)"/>
<path fill-rule="evenodd" clip-rule="evenodd" d="M7 17.1753V33.5747C7 33.6715 7.07855 33.75 7.17546 33.75H9.71123C9.80813 33.75 9.88669 33.6715 9.88669 33.5747V29.2672C9.88669 29.1219 10.0045 29.0042 10.1499 29.0042H16.7529C17.0205 29.0042 17.2734 29.1262 17.4398 29.3356L20.817 33.5843C20.9002 33.689 21.0267 33.75 21.1605 33.75H23.4928C23.5897 33.75 23.6683 33.6715 23.6683 33.5747V32.8051C23.6683 32.704 23.6333 32.606 23.5693 32.5277L20.833 29.1809C20.76 29.0917 20.791 28.9568 20.8943 28.9055C21.2787 28.7147 22.1072 28.2716 22.5509 27.7944C22.9697 27.344 23.3175 26.5707 23.5088 26.0873C23.6214 25.8028 23.6683 25.4983 23.6683 25.1923V21.0919C23.6683 20.8464 23.6381 20.6022 23.5643 20.3681C23.3981 19.8416 23.041 18.8552 22.5509 18.3028C22.1986 17.9058 21.5994 17.5321 21.157 17.2876C20.7927 17.0864 20.3799 17 19.9638 17H7.17546C7.07855 17 7 17.0785 7 17.1753ZM9.70045 26.3986V19.5125H18.9933C19.4347 19.5125 19.8807 19.5989 20.2409 19.8539C20.3377 19.9225 20.4301 19.9965 20.5022 20.0708C20.6087 20.1805 20.7109 20.332 20.7982 20.4809C20.993 20.8131 21.061 21.1997 21.061 21.5848V24.3679C21.061 24.726 21.0032 25.0862 20.8269 25.398C20.7355 25.5596 20.6235 25.7269 20.5022 25.8403C20.4406 25.8979 20.3641 25.958 20.2826 26.0164C19.8946 26.2947 19.4142 26.3986 18.9366 26.3986H9.70045Z" fill="white"/>
<path d="M39.1388 17H30.9113C29.9948 17 29.106 17.3149 28.3926 17.8924L28.1618 18.0793C27.2173 18.8438 26.6682 19.9963 26.6682 21.2142V22.3005C26.6682 23.4152 27.1285 24.48 27.9395 25.2415L28.3382 25.6159C29.0815 26.3139 30.0613 26.7022 31.0792 26.7022H38.9871C39.3377 26.7022 39.6801 26.8095 39.9684 27.0099C40.4335 27.3331 40.711 27.8648 40.711 28.4326V29.2179C40.711 29.7702 40.4688 30.2946 40.0487 30.6513C39.7109 30.9382 39.2828 31.0956 38.8404 31.0956H31.3604C30.7427 31.0956 30.1428 30.8874 29.6571 30.5043C29.3245 30.242 29.1303 29.8409 29.1303 29.4163V29.082C29.1303 28.8798 28.967 28.7158 28.7655 28.7158H27.033C26.8315 28.7158 26.6682 28.8798 26.6682 29.082V29.5111C26.6682 30.5294 27.0526 31.51 27.7439 32.2554L27.9402 32.467C28.6992 33.2852 29.7629 33.75 30.8767 33.75H38.9646C40.0784 33.75 41.1421 33.2852 41.9011 32.467L42.0974 32.2554C42.7887 31.51 43.1731 30.5294 43.1731 29.5111V28.2867C43.1731 27.2684 42.7887 26.2878 42.0974 25.5425L41.9011 25.3308C41.1421 24.5126 40.0784 24.0478 38.9646 24.0478H31.0089C30.6174 24.0478 30.2356 23.925 29.917 23.6966C29.4233 23.3426 29.1303 22.7711 29.1303 22.1621V21.322C29.1303 20.7283 29.3887 20.1642 29.8378 19.7779C30.205 19.4619 30.6727 19.2883 31.1564 19.2883H38.7646C39.2539 19.2883 39.7253 19.4732 40.0848 19.8064C40.484 20.1763 40.711 20.6967 40.711 21.242V21.5235C40.711 21.6539 40.8163 21.7596 40.9462 21.7596H42.8083C43.0098 21.7596 43.1731 21.5956 43.1731 21.3934V21.0479C43.1731 19.926 42.6953 18.8441 41.8752 18.0819C41.1335 17.3926 40.1495 17 39.1388 17Z" fill="white" stroke="white" stroke-width="0.3"/>
<defs>
<linearGradient id="paint0_linear_12_16" x1="38.5" y1="2.58333" x2="9.875" y2="44.8333" gradientUnits="userSpaceOnUse">
<stop stop-color="#97D1FF"/>
<stop offset="1" stop-color="#0061AD"/>
</linearGradient>
</defs>
</svg>
