<svg width="26" height="26" viewBox="0 0 26 26" fill="none" xmlns="http://www.w3.org/2000/svg">
<mask id="path-1-outside-1_48_141" maskUnits="userSpaceOnUse" x="0" y="0" width="26" height="26" fill="black">
<rect fill="white" width="26" height="26"/>
<path fill-rule="evenodd" clip-rule="evenodd" d="M21.5031 4.48822C20.3961 3.37921 19.079 2.49986 17.6281 1.9011C16.1771 1.30233 14.6213 0.996065 13.0506 1.00004C6.46422 1.00004 1.1025 6.33498 1.09983 12.8927C1.09983 14.9885 1.64958 17.034 2.69451 18.8384L1 25L7.33476 23.3453C9.08703 24.2947 11.0502 24.7925 13.0452 24.7933H13.0506C19.6356 24.7933 24.9973 19.4584 25 12.9007C25.0045 11.338 24.6978 9.79003 24.0976 8.3461C23.4974 6.90216 22.6156 5.59094 21.5031 4.48822ZM13.0506 22.7863H13.0466C11.2676 22.7865 9.52129 22.3101 7.991 21.4072L7.62894 21.1925L3.86988 22.1742L4.8722 18.5271L4.6366 18.1535C3.64197 16.5775 3.11545 14.7538 3.1178 12.8927C3.12046 7.44251 7.57569 3.00843 13.0546 3.00843C14.3594 3.00554 15.6518 3.26024 16.8571 3.7578C18.0623 4.25535 19.1565 4.98587 20.0762 5.90707C21.0008 6.82389 21.7337 7.914 22.2324 9.1144C22.7312 10.3148 22.9859 11.6017 22.982 12.9007C22.9793 18.3509 18.5241 22.7863 13.0506 22.7863ZM18.4988 15.382C18.1993 15.2323 16.7324 14.5143 16.4582 14.4149C16.1853 14.3155 15.987 14.2665 15.7873 14.5633C15.5877 14.86 15.0153 15.529 14.8409 15.7278C14.6665 15.9265 14.4922 15.9503 14.194 15.802C13.8958 15.6536 12.9334 15.3396 11.7927 14.3275C10.9048 13.5392 10.3058 12.5668 10.1314 12.2687C9.95705 11.9707 10.1128 11.8104 10.2632 11.662C10.3977 11.5295 10.5614 11.3149 10.7105 11.1413C10.8595 10.9678 10.9088 10.8446 11.0086 10.6459C11.1085 10.4471 11.0592 10.2736 10.9833 10.1252C10.9088 9.97551 10.3111 8.51294 10.0622 7.91811C9.82128 7.34183 9.57502 7.41866 9.39133 7.41072C9.20108 7.40297 9.01069 7.39944 8.82028 7.40012C8.66888 7.40396 8.5199 7.43889 8.38269 7.50272C8.24549 7.56655 8.12301 7.65791 8.02295 7.77106C7.74874 8.06914 6.97802 8.78718 6.97802 10.2497C6.97802 11.7123 8.04824 13.1259 8.19732 13.3246C8.34641 13.5233 10.3031 16.524 13.2981 17.8117C14.0116 18.1177 14.568 18.3005 15.0006 18.4383C15.7154 18.6648 16.3664 18.6317 16.8815 18.5562C17.4552 18.4714 18.6479 17.8382 18.8968 17.144C19.1457 16.4498 19.1457 15.8549 19.0712 15.7304C18.9966 15.6059 18.7956 15.5304 18.4988 15.382Z"/>
</mask>
<path fill-rule="evenodd" clip-rule="evenodd" d="M21.5031 4.48822C20.3961 3.37921 19.079 2.49986 17.6281 1.9011C16.1771 1.30233 14.6213 0.996065 13.0506 1.00004C6.46422 1.00004 1.1025 6.33498 1.09983 12.8927C1.09983 14.9885 1.64958 17.034 2.69451 18.8384L1 25L7.33476 23.3453C9.08703 24.2947 11.0502 24.7925 13.0452 24.7933H13.0506C19.6356 24.7933 24.9973 19.4584 25 12.9007C25.0045 11.338 24.6978 9.79003 24.0976 8.3461C23.4974 6.90216 22.6156 5.59094 21.5031 4.48822ZM13.0506 22.7863H13.0466C11.2676 22.7865 9.52129 22.3101 7.991 21.4072L7.62894 21.1925L3.86988 22.1742L4.8722 18.5271L4.6366 18.1535C3.64197 16.5775 3.11545 14.7538 3.1178 12.8927C3.12046 7.44251 7.57569 3.00843 13.0546 3.00843C14.3594 3.00554 15.6518 3.26024 16.8571 3.7578C18.0623 4.25535 19.1565 4.98587 20.0762 5.90707C21.0008 6.82389 21.7337 7.914 22.2324 9.1144C22.7312 10.3148 22.9859 11.6017 22.982 12.9007C22.9793 18.3509 18.5241 22.7863 13.0506 22.7863ZM18.4988 15.382C18.1993 15.2323 16.7324 14.5143 16.4582 14.4149C16.1853 14.3155 15.987 14.2665 15.7873 14.5633C15.5877 14.86 15.0153 15.529 14.8409 15.7278C14.6665 15.9265 14.4922 15.9503 14.194 15.802C13.8958 15.6536 12.9334 15.3396 11.7927 14.3275C10.9048 13.5392 10.3058 12.5668 10.1314 12.2687C9.95705 11.9707 10.1128 11.8104 10.2632 11.662C10.3977 11.5295 10.5614 11.3149 10.7105 11.1413C10.8595 10.9678 10.9088 10.8446 11.0086 10.6459C11.1085 10.4471 11.0592 10.2736 10.9833 10.1252C10.9088 9.97551 10.3111 8.51294 10.0622 7.91811C9.82128 7.34183 9.57502 7.41866 9.39133 7.41072C9.20108 7.40297 9.01069 7.39944 8.82028 7.40012C8.66888 7.40396 8.5199 7.43889 8.38269 7.50272C8.24549 7.56655 8.12301 7.65791 8.02295 7.77106C7.74874 8.06914 6.97802 8.78718 6.97802 10.2497C6.97802 11.7123 8.04824 13.1259 8.19732 13.3246C8.34641 13.5233 10.3031 16.524 13.2981 17.8117C14.0116 18.1177 14.568 18.3005 15.0006 18.4383C15.7154 18.6648 16.3664 18.6317 16.8815 18.5562C17.4552 18.4714 18.6479 17.8382 18.8968 17.144C19.1457 16.4498 19.1457 15.8549 19.0712 15.7304C18.9966 15.6059 18.7956 15.5304 18.4988 15.382Z" fill="#2F3539"/>
<path d="M13.0506 1.00004V1.30004L13.0513 1.30004L13.0506 1.00004ZM1.09983 12.8927L0.799833 12.8926V12.8927H1.09983ZM2.69451 18.8384L2.98377 18.9179L3.01709 18.7968L2.95412 18.688L2.69451 18.8384ZM1 25L0.710739 24.9205L0.572912 25.4216L1.07582 25.2903L1 25ZM7.33476 23.3453L7.47767 23.0816L7.37354 23.0251L7.25894 23.0551L7.33476 23.3453ZM13.0452 24.7933L13.0451 25.0933H13.0452V24.7933ZM25 12.9007L24.7 12.8998V12.9005L25 12.9007ZM13.0466 22.7863V22.4863H13.0465L13.0466 22.7863ZM7.991 21.4072L7.83803 21.6652L7.83855 21.6655L7.991 21.4072ZM7.62894 21.1925L7.78191 20.9345L7.67424 20.8707L7.55314 20.9023L7.62894 21.1925ZM3.86988 22.1742L3.5806 22.0947L3.4429 22.5958L3.94568 22.4645L3.86988 22.1742ZM4.8722 18.5271L5.16148 18.6066L5.19655 18.479L5.12596 18.367L4.8722 18.5271ZM4.6366 18.1535L4.89035 17.9934L4.8903 17.9934L4.6366 18.1535ZM3.1178 12.8927L3.4178 12.8931V12.8929L3.1178 12.8927ZM13.0546 3.00843V3.30843L13.0552 3.30842L13.0546 3.00843ZM20.0762 5.90707L19.8639 6.11903L19.8649 6.1201L20.0762 5.90707ZM22.982 12.9007L22.682 12.8997V12.9005L22.982 12.9007ZM16.4582 14.4149L16.3556 14.6968L16.356 14.697L16.4582 14.4149ZM11.7927 14.3275L11.5935 14.5518L11.5936 14.5519L11.7927 14.3275ZM10.2632 11.662L10.0526 11.4483L10.0525 11.4484L10.2632 11.662ZM10.9833 10.1252L10.7148 10.2589L10.7162 10.2618L10.9833 10.1252ZM10.0622 7.91811L9.78543 8.03383L9.78546 8.03392L10.0622 7.91811ZM9.39133 7.41072L9.4043 7.11099L9.40353 7.11096L9.39133 7.41072ZM8.82028 7.40012L8.81921 7.10005L8.81268 7.10021L8.82028 7.40012ZM8.02295 7.77106L8.24378 7.97421L8.24768 7.9698L8.02295 7.77106ZM13.2981 17.8117L13.1796 18.0873L13.1799 18.0874L13.2981 17.8117ZM15.0006 18.4383L14.9096 18.7242L14.91 18.7243L15.0006 18.4383ZM16.8815 18.5562L16.925 18.853L16.9254 18.853L16.8815 18.5562ZM21.7154 4.27628C20.5804 3.13918 19.23 2.23763 17.7425 1.62378L17.5136 2.17841C18.928 2.76209 20.2118 3.61925 21.2908 4.70016L21.7154 4.27628ZM17.7425 1.62378C16.255 1.00993 14.66 0.695966 13.0498 0.700039L13.0513 1.30004C14.5825 1.29616 16.0993 1.59473 17.5136 2.17841L17.7425 1.62378ZM13.0506 0.700038C6.29985 0.700038 0.802563 6.16795 0.799833 12.8926L1.39983 12.8928C1.40243 6.50202 6.62858 1.30004 13.0506 1.30004V0.700038ZM0.799833 12.8927C0.799833 15.0412 1.36346 17.1386 2.4349 18.9887L2.95412 18.688C1.93571 16.9295 1.39983 14.9359 1.39983 12.8927H0.799833ZM2.40524 18.7588L0.710739 24.9205L1.28926 25.0795L2.98377 18.9179L2.40524 18.7588ZM1.07582 25.2903L7.41058 23.6356L7.25894 23.0551L0.924183 24.7097L1.07582 25.2903ZM7.19185 23.6091C8.98801 24.5822 11.0002 25.0924 13.0451 25.0933L13.0454 24.4933C11.1001 24.4925 9.18605 24.0071 7.47767 23.0816L7.19185 23.6091ZM13.0452 25.0933H13.0506V24.4933H13.0452V25.0933ZM13.0506 25.0933C19.8 25.0933 25.2972 19.6254 25.3 12.9008L24.7 12.9005C24.6974 19.2914 19.4712 24.4933 13.0506 24.4933V25.0933ZM25.2999 12.9015C25.3046 11.2991 24.9901 9.71162 24.3746 8.23095L23.8205 8.46125C24.4055 9.86845 24.7044 11.377 24.7 12.8998L25.2999 12.9015ZM24.3746 8.23095C23.7591 6.75028 22.8549 5.40579 21.7143 4.27516L21.2919 4.70128C22.3762 5.77609 23.2356 7.05405 23.8205 8.46125L24.3746 8.23095ZM13.0506 22.4863H13.0466V23.0863H13.0506V22.4863ZM13.0465 22.4863C11.3211 22.4865 9.62749 22.0244 8.14345 21.1488L7.83855 21.6655C9.41509 22.5958 11.214 23.0865 13.0466 23.0863L13.0465 22.4863ZM8.14397 21.1491L7.78191 20.9345L7.47597 21.4506L7.83803 21.6652L8.14397 21.1491ZM7.55314 20.9023L3.79408 21.8839L3.94568 22.4645L7.70474 21.4828L7.55314 20.9023ZM4.15915 22.2537L5.16148 18.6066L4.58293 18.4476L3.5806 22.0947L4.15915 22.2537ZM5.12596 18.367L4.89035 17.9934L4.38285 18.3135L4.61845 18.6871L5.12596 18.367ZM4.8903 17.9934C3.92595 16.4654 3.41552 14.6973 3.4178 12.8931L2.8178 12.8923C2.81538 14.8103 3.358 16.6897 4.3829 18.3136L4.8903 17.9934ZM3.4178 12.8929C3.42038 7.6096 7.74001 3.30843 13.0546 3.30843V2.70843C7.41138 2.70843 2.82054 7.27542 2.8178 12.8926L3.4178 12.8929ZM13.0552 3.30842C14.3206 3.30563 15.5739 3.55263 16.7426 4.0351L16.9715 3.4805C15.7298 2.96786 14.3982 2.70545 13.0539 2.70843L13.0552 3.30842ZM16.7426 4.0351C17.9113 4.51757 18.9722 5.2259 19.8639 6.11903L20.2885 5.69512C19.3407 4.74584 18.2133 3.99313 16.9715 3.4805L16.7426 4.0351ZM19.8649 6.1201C20.7614 7.009 21.4719 8.06584 21.9554 9.22951L22.5095 8.99929C21.9954 7.76215 21.2402 6.63877 20.2874 5.69404L19.8649 6.1201ZM21.9554 9.22951C22.4389 10.3932 22.6858 11.6406 22.682 12.8997L23.282 12.9016C23.2861 11.5627 23.0235 10.2364 22.5095 8.99929L21.9554 9.22951ZM22.682 12.9005C22.6794 18.1839 18.3596 22.4863 13.0506 22.4863V23.0863C18.6886 23.0863 23.2792 18.5178 23.282 12.9008L22.682 12.9005ZM18.6329 15.1137C18.4815 15.0379 18.0384 14.8203 17.5989 14.6092C17.1688 14.4025 16.7156 14.1891 16.5604 14.1328L16.356 14.697C16.475 14.7401 16.8923 14.9353 17.3391 15.15C17.7765 15.3601 18.2166 15.5764 18.3647 15.6503L18.6329 15.1137ZM16.5608 14.133C16.4331 14.0865 16.2505 14.0209 16.0612 14.0425C15.8394 14.0678 15.6706 14.1994 15.5384 14.3958L16.0362 14.7307C16.0718 14.6779 16.0972 14.6556 16.1098 14.6469C16.1195 14.6401 16.1241 14.6392 16.1294 14.6386C16.1383 14.6376 16.1586 14.6374 16.1986 14.6467C16.2396 14.6562 16.2886 14.6724 16.3556 14.6968L16.5608 14.133ZM15.5384 14.3958C15.3516 14.6734 14.7933 15.3271 14.6154 15.5299L15.0664 15.9256C15.2372 15.731 15.8237 15.0467 16.0362 14.7307L15.5384 14.3958ZM14.6154 15.5299C14.5573 15.5961 14.5324 15.5967 14.5283 15.5971C14.5117 15.5991 14.4572 15.5978 14.3276 15.5334L14.0603 16.0705C14.229 16.1545 14.4107 16.2154 14.5994 16.1929C14.8007 16.1689 14.9501 16.0581 15.0664 15.9256L14.6154 15.5299ZM14.3276 15.5334C14.0003 15.3705 13.0936 15.0807 11.9918 14.1031L11.5936 14.5519C12.7732 15.5985 13.7914 15.9367 14.0603 16.0705L14.3276 15.5334ZM11.9918 14.1031C11.1396 13.3465 10.5596 12.4066 10.3904 12.1172L9.87248 12.4202C10.052 12.727 10.67 13.7319 11.5935 14.5518L11.9918 14.1031ZM10.3904 12.1172C10.3623 12.0693 10.3563 12.0417 10.3549 12.031C10.3538 12.0227 10.3547 12.0192 10.3564 12.0145C10.3593 12.007 10.3668 11.992 10.3872 11.9669C10.4086 11.9407 10.4353 11.9136 10.4739 11.8756L10.0525 11.4484C9.98551 11.5145 9.85753 11.6361 9.79461 11.8039C9.72078 12.0009 9.74944 12.2099 9.87248 12.4202L10.3904 12.1172ZM10.4738 11.8757C10.6191 11.7324 10.8091 11.4868 10.938 11.3368L10.4829 10.9458C10.3136 11.1429 10.1762 11.3266 10.0526 11.4483L10.4738 11.8757ZM10.938 11.3368C11.1168 11.1287 11.1839 10.9653 11.2767 10.7805L10.7406 10.5112C10.6337 10.7239 10.6023 10.8069 10.4829 10.9458L10.938 11.3368ZM11.2767 10.7805C11.4381 10.4593 11.3466 10.1767 11.2504 9.98863L10.7162 10.2618C10.7454 10.3189 10.7597 10.3625 10.7636 10.3987C10.7669 10.4299 10.7638 10.4649 10.7406 10.5112L11.2767 10.7805ZM11.2519 9.9915C11.2207 9.92895 11.0589 9.54148 10.8654 9.07386C10.676 8.61629 10.4637 8.10041 10.339 7.8023L9.78546 8.03392C9.90963 8.33064 10.1206 8.84347 10.311 9.30331C10.4971 9.75311 10.6714 10.1718 10.7148 10.2589L11.2519 9.9915ZM10.339 7.80239C10.2051 7.48224 10.0437 7.27875 9.83279 7.17972C9.64571 7.09189 9.42557 7.11192 9.4043 7.111L9.37836 7.71043C9.41094 7.71184 9.44406 7.71134 9.46561 7.71115C9.49032 7.71094 9.50739 7.71098 9.52318 7.71185C9.5519 7.71344 9.56639 7.71749 9.57782 7.72285C9.59617 7.73146 9.67834 7.7777 9.78543 8.03383L10.339 7.80239ZM9.40353 7.11096C9.20886 7.10304 9.01404 7.09942 8.81921 7.10012L8.82135 7.70011C9.00733 7.69945 9.1933 7.7029 9.37913 7.71047L9.40353 7.11096ZM8.81268 7.10021C8.62017 7.10509 8.4307 7.14951 8.25615 7.23071L8.50924 7.77472C8.6091 7.72827 8.71759 7.70282 8.82789 7.70002L8.81268 7.10021ZM8.25615 7.23071C8.0816 7.31192 7.92568 7.42819 7.79822 7.57232L8.24768 7.9698C8.32035 7.88762 8.40938 7.82118 8.50924 7.77472L8.25615 7.23071ZM7.80216 7.56795C7.5267 7.86738 6.67802 8.66154 6.67802 10.2497H7.27802C7.27802 8.91281 7.97077 8.27089 8.24373 7.97417L7.80216 7.56795ZM6.67802 10.2497C6.67802 11.0489 6.96856 11.8172 7.26453 12.3974C7.56267 12.9819 7.87996 13.4015 7.95735 13.5046L8.4373 13.1446C8.3656 13.049 8.07324 12.6624 7.79901 12.1248C7.52259 11.5829 7.27802 10.9132 7.27802 10.2497H6.67802ZM7.95735 13.5046C8.09092 13.6827 10.096 16.7614 13.1796 18.0873L13.4166 17.5361C10.5103 16.2865 8.60189 13.364 8.4373 13.1446L7.95735 13.5046ZM13.1799 18.0874C13.9063 18.399 14.4732 18.5852 14.9096 18.7241L15.0917 18.1524C14.6628 18.0159 14.1169 17.8364 13.4164 17.536L13.1799 18.0874ZM14.91 18.7243C15.6847 18.9698 16.386 18.932 16.925 18.853L16.838 18.2594C16.3467 18.3314 15.7462 18.3599 15.0913 18.1523L14.91 18.7243ZM16.9254 18.853C17.2683 18.8023 17.7503 18.6006 18.1722 18.3316C18.5868 18.0672 19.0198 17.6898 19.1792 17.2452L18.6144 17.0427C18.5249 17.2923 18.237 17.5787 17.8497 17.8257C17.4696 18.068 17.0684 18.2253 16.8376 18.2594L16.9254 18.853ZM19.1792 17.2452C19.3125 16.8735 19.3802 16.5259 19.4042 16.2495C19.4161 16.1117 19.4176 15.987 19.4095 15.8828C19.4026 15.7949 19.386 15.6723 19.3286 15.5763L18.8138 15.8845C18.7936 15.8508 18.805 15.8493 18.8113 15.9296C18.8163 15.9937 18.8162 16.0844 18.8064 16.1976C18.7868 16.4233 18.73 16.7203 18.6144 17.0427L19.1792 17.2452ZM19.3286 15.5763C19.2471 15.4402 19.1148 15.3581 19.0126 15.3021C18.9107 15.2463 18.7639 15.1791 18.6329 15.1137L18.3647 15.6503C18.5305 15.7332 18.6326 15.778 18.7241 15.8282C18.8153 15.8782 18.8207 15.8961 18.8138 15.8845L19.3286 15.5763Z" fill="#2F3539" mask="url(#path-1-outside-1_48_141)"/>
</svg>
